<mxfile host="app.diagrams.net" agent="Mozilla/5.0 (Macintosh; Intel Mac OS X 10_15_7) AppleWebKit/537.36 (KHTML, like Gecko) Chrome/133.0.0.0 Safari/537.36 Edg/133.0.0.0" version="26.0.16">
  <diagram name="第 1 页" id="ZJ2pWB5R4rDHhokVvK5w">
    <mxGraphModel dx="1187" dy="720" grid="1" gridSize="10" guides="1" tooltips="1" connect="1" arrows="1" fold="1" page="1" pageScale="1" pageWidth="827" pageHeight="1169" math="0" shadow="0">
      <root>
        <mxCell id="0" />
        <mxCell id="1" parent="0" />
        <mxCell id="lzZwCWn5OyF4Scwiicxr-3" value="" style="edgeStyle=orthogonalEdgeStyle;rounded=0;orthogonalLoop=1;jettySize=auto;html=1;" edge="1" parent="1" source="lzZwCWn5OyF4Scwiicxr-1" target="lzZwCWn5OyF4Scwiicxr-2">
          <mxGeometry relative="1" as="geometry" />
        </mxCell>
        <mxCell id="lzZwCWn5OyF4Scwiicxr-1" value="数据预处理" style="rounded=0;whiteSpace=wrap;html=1;" vertex="1" parent="1">
          <mxGeometry x="240" y="80" width="120" height="40" as="geometry" />
        </mxCell>
        <mxCell id="lzZwCWn5OyF4Scwiicxr-5" value="" style="edgeStyle=orthogonalEdgeStyle;rounded=0;orthogonalLoop=1;jettySize=auto;html=1;" edge="1" parent="1" source="lzZwCWn5OyF4Scwiicxr-2" target="lzZwCWn5OyF4Scwiicxr-4">
          <mxGeometry relative="1" as="geometry" />
        </mxCell>
        <mxCell id="lzZwCWn5OyF4Scwiicxr-2" value="温度分段与季节划分" style="rounded=0;whiteSpace=wrap;html=1;" vertex="1" parent="1">
          <mxGeometry x="240" y="140" width="120" height="40" as="geometry" />
        </mxCell>
        <mxCell id="lzZwCWn5OyF4Scwiicxr-9" value="" style="edgeStyle=orthogonalEdgeStyle;rounded=0;orthogonalLoop=1;jettySize=auto;html=1;" edge="1" parent="1" source="lzZwCWn5OyF4Scwiicxr-4" target="lzZwCWn5OyF4Scwiicxr-8">
          <mxGeometry relative="1" as="geometry" />
        </mxCell>
        <mxCell id="lzZwCWn5OyF4Scwiicxr-4" value="计算基准负荷曲线" style="rounded=0;whiteSpace=wrap;html=1;" vertex="1" parent="1">
          <mxGeometry x="240" y="200" width="120" height="40" as="geometry" />
        </mxCell>
        <mxCell id="lzZwCWn5OyF4Scwiicxr-11" value="" style="edgeStyle=orthogonalEdgeStyle;rounded=0;orthogonalLoop=1;jettySize=auto;html=1;" edge="1" parent="1" source="lzZwCWn5OyF4Scwiicxr-8" target="lzZwCWn5OyF4Scwiicxr-10">
          <mxGeometry relative="1" as="geometry" />
        </mxCell>
        <mxCell id="lzZwCWn5OyF4Scwiicxr-8" value="温度-负荷回归建模" style="rounded=0;whiteSpace=wrap;html=1;" vertex="1" parent="1">
          <mxGeometry x="240" y="260" width="120" height="40" as="geometry" />
        </mxCell>
        <mxCell id="lzZwCWn5OyF4Scwiicxr-13" value="" style="edgeStyle=orthogonalEdgeStyle;rounded=0;orthogonalLoop=1;jettySize=auto;html=1;" edge="1" parent="1" source="lzZwCWn5OyF4Scwiicxr-10" target="lzZwCWn5OyF4Scwiicxr-12">
          <mxGeometry relative="1" as="geometry" />
        </mxCell>
        <mxCell id="lzZwCWn5OyF4Scwiicxr-10" value="负荷分解" style="rounded=0;whiteSpace=wrap;html=1;" vertex="1" parent="1">
          <mxGeometry x="240" y="320" width="120" height="40" as="geometry" />
        </mxCell>
        <mxCell id="lzZwCWn5OyF4Scwiicxr-12" value="输出预测值" style="rounded=0;whiteSpace=wrap;html=1;" vertex="1" parent="1">
          <mxGeometry x="240" y="380" width="120" height="40" as="geometry" />
        </mxCell>
        <mxCell id="lzZwCWn5OyF4Scwiicxr-14" style="edgeStyle=orthogonalEdgeStyle;rounded=0;orthogonalLoop=1;jettySize=auto;html=1;exitX=1;exitY=0;exitDx=0;exitDy=0;entryX=1;entryY=1;entryDx=0;entryDy=0;" edge="1" parent="1" source="lzZwCWn5OyF4Scwiicxr-10" target="lzZwCWn5OyF4Scwiicxr-10">
          <mxGeometry relative="1" as="geometry">
            <Array as="points">
              <mxPoint x="360" y="310" />
              <mxPoint x="430" y="310" />
              <mxPoint x="430" y="370" />
              <mxPoint x="360" y="370" />
            </Array>
          </mxGeometry>
        </mxCell>
        <mxCell id="lzZwCWn5OyF4Scwiicxr-15" value="&lt;pre style=&quot;font-family: var(--ds-font-family-code); overflow: auto; padding: calc(var(--ds-md-zoom)*8px)calc(var(--ds-md-zoom)*12px); white-space: pre-wrap; word-break: break-all; font-size: 12.573px; font-style: normal; font-variant-ligatures: normal; font-variant-caps: normal; font-weight: 400; letter-spacing: normal; orphans: 2; text-align: start; text-indent: 0px; text-transform: none; widows: 2; word-spacing: 0px; -webkit-text-stroke-width: 0px; text-decoration-thickness: initial; text-decoration-style: initial; text-decoration-color: initial; margin: 0px !important;&quot;&gt;误差修正与优化&lt;/pre&gt;" style="text;whiteSpace=wrap;html=1;fillColor=none;fontColor=#000000;" vertex="1" parent="1">
          <mxGeometry x="380" y="320" width="60" height="40" as="geometry" />
        </mxCell>
      </root>
    </mxGraphModel>
  </diagram>
</mxfile>
